<svg width="24" height="22" viewBox="0 0 24 22" fill="none" xmlns="http://www.w3.org/2000/svg">
<path fill-rule="evenodd" clip-rule="evenodd" d="M0.605625 7.08738H5.28337V21.9093H0.605625V7.08738ZM2.82525 5.23357H2.7915C1.09781 5.23357 0 4.10051 0 2.66426C0 1.19988 1.13025 0.0908203 2.8575 0.0908203C4.58325 0.0908203 5.6445 1.19707 5.67825 2.66013C5.67825 4.09638 4.58325 5.23357 2.82506 5.23357H2.82525ZM24 21.9091H18.6937V14.239C18.6937 12.2314 17.8641 10.8608 16.0395 10.8608C14.6439 10.8608 13.8679 11.7858 13.5064 12.6769C13.371 12.9968 13.3939 13.4425 13.3939 13.8882V21.9089H8.13937V7.08701H13.3942V9.41313C13.7047 8.39613 15.3836 6.94451 18.0636 6.94451C21.3879 6.94451 23.9998 9.07638 23.9998 13.6673V21.9089L24 21.9091Z" fill="#007EBB"/>
</svg>
