<svg width="24" height="20" viewBox="0 0 24 20" fill="none" xmlns="http://www.w3.org/2000/svg">
<path fill-rule="evenodd" clip-rule="evenodd" d="M24 2.36768C23.1038 2.77571 22.1502 3.04365 21.1727 3.16212C22.1897 2.53812 22.9702 1.5485 23.3379 0.369872C22.3854 0.947747 21.3335 1.36812 20.2091 1.5935C19.3132 0.612872 18.0326 0.00012207 16.6155 0.00012207C13.898 0.00012207 11.6936 2.26081 11.6936 5.04893C11.6936 5.44456 11.7358 5.82893 11.8204 6.19887C7.72818 5.98756 4.10061 3.97981 1.66874 0.921685C1.24499 1.66981 1.00236 2.53793 1.00236 3.46268C1.00236 5.21356 1.87161 6.75893 3.19292 7.66493C2.38724 7.64056 1.62636 7.41068 0.961675 7.03493V7.09681C0.961675 9.54368 2.65911 11.585 4.91305 12.0474C4.50055 12.1659 4.06499 12.2251 3.61555 12.2251C3.30437 12.2255 2.9939 12.1955 2.68855 12.1355C3.31536 14.1406 5.13261 15.6011 7.28792 15.6399C5.60305 16.9949 3.47886 17.8023 1.1728 17.8023C0.7753 17.8023 0.382487 17.7792 -0.0020752 17.7329C2.17724 19.163 4.76643 19.9994 7.54574 19.9994C16.6039 19.9994 21.5552 12.3071 21.5552 5.63468C21.5552 5.4165 21.5509 5.19833 21.5424 4.98031C22.505 4.26818 23.3405 3.37981 23.9983 2.36712" fill="#00AAEC"/>
</svg>
